<svg width="15" height="15" viewBox="0 0 15 15" fill="none" xmlns="http://www.w3.org/2000/svg">
<path d="M0.75 13.8375V4.6125C0.575 4.5875 0.40625 4.4625 0.24375 4.2375C0.08125 4.0125 0 3.76875 0 3.50625V1.125C0 0.8375 0.1125 0.578125 0.3375 0.346875C0.5625 0.115625 0.825 0 1.125 0H13.875C14.1625 0 14.4219 0.115625 14.6531 0.346875C14.8844 0.578125 15 0.8375 15 1.125V3.50625C15 3.76875 14.9187 4.0125 14.7562 4.2375C14.5937 4.4625 14.425 4.5875 14.25 4.6125V13.8375C14.25 14.125 14.1344 14.3906 13.9031 14.6344C13.6719 14.8781 13.4125 15 13.125 15H1.875C1.575 15 1.3125 14.8781 1.0875 14.6344C0.8625 14.3906 0.75 14.125 0.75 13.8375ZM1.875 4.63125V13.875H13.125V4.63125H1.875ZM13.875 3.50625V1.125H1.125V3.50625H13.875ZM5.25 8.56875H9.75V7.44375H5.25V8.56875Z" fill="white"/>
</svg>
