<svg width="17" height="17" viewBox="0 0 17 17" stroke="white" fill="none" xmlns="http://www.w3.org/2000/svg">

<path d="M0.75 4.305V4.26163L0.707071 4.2555C0.563157 4.23494 0.416172 4.13084 0.268034 3.92573C0.122146 3.72373 0.05 3.50637 0.05 3.2725V1.05C0.05 0.796325 0.148711 0.566358 0.350836 0.358618C0.552212 0.151648 0.784589 0.05 1.05 0.05H12.95C13.2032 0.05 13.433 0.151246 13.6409 0.359105C13.8488 0.566965 13.95 0.796788 13.95 1.05V3.2725C13.95 3.50637 13.8779 3.72373 13.732 3.92573C13.5838 4.13084 13.4368 4.23494 13.2929 4.2555L13.25 4.26163V4.305V12.915C13.25 13.1684 13.1486 13.4044 12.94 13.6243C12.7319 13.8437 12.5023 13.95 12.25 13.95H1.75C1.48551 13.95 1.25339 13.8433 1.05174 13.6248C0.848862 13.4051 0.75 13.1688 0.75 12.915V4.305ZM1.75 4.2725H1.7V4.3225V12.95V13H1.75H12.25H12.3V12.95V4.3225V4.2725H12.25H1.75ZM12.95 3.3225H13V3.2725V1.05V1H12.95H1.05H1V1.05V3.2725V3.3225H1.05H12.95ZM9.05 6.9975V7.9475H4.95V6.9975H9.05Z" fill="#30B3D5" stroke="#1C738E" stroke-width="0.1"/>
</svg>
