<svg width="20" height="14" viewBox="0 0 20 14" fill="none" xmlns="http://www.w3.org/2000/svg">
<path fill-rule="evenodd" clip-rule="evenodd" d="M14.1332 10.6297L18.1156 8.32915L16.278 7.27041L14.1653 6.04689C13.6199 6.44552 12.5292 6.9589 12.0067 7.25666H12.0021C11.9975 7.26129 11.993 7.26129 11.9883 7.26577L10.1507 8.32435L14.1332 10.6297ZM18.4225 8.86987V10.8542L16.2779 12.0915L14.4447 13.1502V11.1659L18.4225 8.86987ZM13.8214 13.1502L11.9882 12.0917C11.9836 12.087 11.9745 12.087 11.9698 12.0826L9.83895 10.8544V8.87005L13.8214 11.1661L13.8214 13.1502ZM14.4445 5.49254L16.5892 6.72981L18.8897 8.0588C18.9905 8.11842 19.0455 8.21928 19.0455 8.32925V11.0285C19.0455 11.1569 18.9722 11.2622 18.8622 11.3127L16.5846 12.628L14.2841 13.957C14.1832 14.0166 14.0641 14.012 13.9679 13.957L11.6674 12.628C11.6628 12.6234 11.6583 12.6234 11.6537 12.6189C11.1267 12.3165 10.0863 11.8306 9.52277 11.4273C8.96829 11.826 7.90047 12.3256 7.39187 12.6189C7.38723 12.6235 7.38276 12.6235 7.37812 12.628L5.07762 13.957C4.98603 14.012 4.86216 14.0166 4.76146 13.957L2.46096 12.628L0.183331 11.3127C0.0780009 11.2624 0 11.1569 0 11.0285V8.32925C0 8.22392 0.0549847 8.11843 0.155838 8.0588L2.45634 6.72981L4.60099 5.49254V2.97194C4.60099 2.86662 4.65597 2.76113 4.75683 2.7015L7.05733 1.37251L9.36692 0.0436281C9.4585 -0.0113568 9.57774 -0.0159886 9.68307 0.038993L11.9698 1.36337C11.9745 1.368 11.9836 1.368 11.9882 1.37248L14.2705 2.6924C14.3758 2.74274 14.4447 2.84823 14.4447 2.97194L14.4445 5.49254ZM4.61003 11.1662L0.627612 8.87016V10.8545L2.77226 12.0918L4.6054 13.1503V11.1662H4.61003ZM0.93928 8.32943L4.9217 10.6299L8.90411 8.32943L7.06651 7.27086C7.06187 7.26622 7.0574 7.26622 7.05276 7.26175L4.92186 6.03357L2.77721 7.27083L0.93928 8.32943ZM9.21566 8.87016L5.23324 11.1662V13.1505L7.06639 12.0919C7.07102 12.0873 7.08013 12.0873 7.08477 12.0828L9.21567 10.8546L9.21566 8.87016ZM5.76947 5.79975L7.36431 6.72089C7.36894 6.72552 7.37805 6.72552 7.38269 6.73L9.21583 7.78857V5.80424L5.23325 3.5084V5.49273L5.76947 5.79975ZM5.5449 2.97215L9.52731 5.27265L13.5097 2.97215L11.6721 1.91357C11.6675 1.90894 11.663 1.90894 11.6584 1.90446L9.52748 0.676284L7.38283 1.91355L5.5449 2.97215ZM13.8213 3.50837V5.49271L11.6904 6.72089L9.85723 7.77946V5.79513L13.8213 3.50837Z" fill="white"/>
</svg>